# xmcd
#
# Track frame offsets:
#	150
#	10539
#	21104
#	33251
#	45988
#	56343
#	67955
#	79190
#	89534
#	105476
#	115998
#	132556
#
# Disc length: 1983 seconds
#
# Revision: 1
# Processed by: cddbd v1.4PL0 Copyright (c) Steve Scherf et al.
# Submitted via: audiograbber 1.80
#
DISCID=8c07bd0c
DTITLE=Grass Cats - Cattin' Around
DYEAR=1900
DGENRE=
TTITLE0=Cattin' Around
TTITLE1=I Got Stripes
TTITLE2=I Won't Need Your Nine Pound Hammer
TTITLE3=Old Old House
TTITLE4=You Go To Your Church (And I'll Go to Mine)
TTITLE5=Red Bandana
TTITLE6=Never Again
TTITLE7=Hello City Limits
TTITLE8=Paradise
TTITLE9=Columbus Stockade Blues
TTITLE10=I Thought I Heard You Calling My Name
TTITLE11=Life's Highway
EXTD=Blue Grass
EXTT0=
EXTT1=
EXTT2=
EXTT3=
EXTT4=
EXTT5=
EXTT6=
EXTT7=
EXTT8=
EXTT9=
EXTT10=
EXTT11=
PLAYORDER=
